<svg xmlns="http://www.w3.org/2000/svg" style="shape-rendering:geometricPrecision;text-rendering:geometricPrecision;image-rendering:optimizeQuality;fill-rule:evenodd;clip-rule:evenodd" viewBox="0 0 500 500"><path fill="#fefefe" d="M-.5-.5h500v500H-.5V-.5Z" style="opacity:1"/><path fill="#f2beda" d="M354.5 191.5c1.517.011 2.684.677 3.5 2 .81 3.858.643 7.524-.5 11 .762-4.893-.238-9.226-3-13Z" style="opacity:1"/><path fill="#eca9ca" d="M395.5 213.5c3.177 2.669 4.51 1.669 4-3a457.016 457.016 0 0 0-41-1v-1c12.333-.6 24.666-.767 37-.5 3.743.45 6.076 2.45 7 6-1.462 2.201-3.462 2.867-6 2-.752-.671-1.086-1.504-1-2.5Z" style="opacity:1"/><path fill="#e44d9c" d="M358.5 208.5v1c8.15.993 16.483 1.326 25 1v3c-7.168-.861-14.168-.861-21 0a31.881 31.881 0 0 1-1 8.5c-.113 1.699.553 2.866 2 3.5 1.502 2.522 2.835 2.522 4 0 1.717-1.862 3.717-3.529 6-5 .952-1.545 1.285-3.212 1-5 5.004-1.94 9.004-.774 12 3.5-1.405 1.269-3.071 1.769-5 1.5-1.98 1.348-3.147 3.348-3.5 6-.796 2.539-.629 4.872.5 7 5.514.667 11.181 1.333 17 2-2.117 2.292-4.784 3.625-8 4a49.853 49.853 0 0 0-11.5-2c-2.935-.166-5.602.501-8 2l-2-4a12.21 12.21 0 0 0-4 3 11.187 11.187 0 0 0-4.5-1c-.362-7.674-4.362-11.507-12-11.5-1.323.816-1.989 1.983-2 3.5a14.698 14.698 0 0 0-3.5 3 12.93 12.93 0 0 1-.5-5c.324-4.816.491-9.816.5-15 .87-.608 1.37-1.441 1.5-2.5-2.837-4.298-2.504-8.298 1-12a4.457 4.457 0 0 1-2-1.5c1.35-1.45 3.016-2.117 5-2v-3c3.36-.71 5.193.624 5.5 4 1.626-.354 3.459-.354 5.5 0 .511 4.283-.156 8.283-2 12 1.189.929 2.522 1.262 4 1Z" style="opacity:1"/><path fill="#fbd6eb" d="M362.5 213.5h11c.271 1.88-.396 3.213-2 4v-3h-7a72.032 72.032 0 0 0-1 11c-1.447-.634-2.113-1.801-2-3.5a31.881 31.881 0 0 0 1-8.5Z" style="opacity:1"/><path fill="#fcf9fb" d="M371.5 217.5a27.374 27.374 0 0 0-4 8c-1.165 2.522-2.498 2.522-4 0a72.032 72.032 0 0 1 1-11h7v3Z" style="opacity:1"/><path fill="#d85b96" d="M354.5 191.5c2.762 3.774 3.762 8.107 3 13 .086.996-.248 1.829-1 2.5.916.278 1.582.778 2 1.5-1.478.262-2.811-.071-4-1 1.844-3.717 2.511-7.717 2-12-2.041-.354-3.874-.354-5.5 0-.307-3.376-2.14-4.71-5.5-4v3c-1.984-.117-3.65.55-5 2a4.457 4.457 0 0 0 2 1.5c-3.504 3.702-3.837 7.702-1 12-.13 1.059-.63 1.892-1.5 2.5a229.541 229.541 0 0 1-.5 15 103.935 103.935 0 0 0-4-9 7.297 7.297 0 0 0 2-3.5c-1.381-6.008-1.214-12.175.5-18.5 4.126-6.432 9.626-8.099 16.5-5Z" style="opacity:1"/><path fill="#070707" d="M82.5 270.5c.166-7.341 0-14.674-.5-22a42.584 42.584 0 0 0-1.5 5 168.784 168.784 0 0 0-4 17 21.128 21.128 0 0 1-9-1 247.502 247.502 0 0 0-4-15l-1.5-6a242.43 242.43 0 0 0-.5 22h-9v-33a112.97 112.97 0 0 1 15 .5 151.522 151.522 0 0 0 5 16.5 64.971 64.971 0 0 0 5-17h15v33h-10ZM107.5 237.5a43.117 43.117 0 0 1 13 1 453.784 453.784 0 0 1 11 32h-11c.214-1.644-.12-3.144-1-4.5a24.551 24.551 0 0 0-12 .5 6.846 6.846 0 0 0-1 4 31.117 31.117 0 0 1-11-1 931.026 931.026 0 0 0 12-32Z" style="opacity:1"/><path fill="#060606" d="M134.5 237.5h11c-.166 7.674 0 15.341.5 23 3.979 4.144 7.645 3.81 11-1 .5-7.326.666-14.659.5-22h10a133.23 133.23 0 0 1-1.5 27c-4.096 4.645-9.263 6.645-15.5 6-7.389.725-12.555-2.275-15.5-9-.5-7.993-.666-15.993-.5-24Z" style="opacity:1"/><path d="M204.5 245.5h-11v25h-10v-25h-11v-8h32v8Z" style="opacity:1"/><path fill="#060606" d="M215.5 237.5a43.117 43.117 0 0 1 13 1 314.854 314.854 0 0 1 11 32h-11c.214-1.644-.12-3.144-1-4.5a24.551 24.551 0 0 0-12 .5 6.846 6.846 0 0 0-1 4 31.116 31.116 0 0 1-11-1 930.817 930.817 0 0 0 12-32Z" style="opacity:1"/><path fill="#090909" d="m254.5 254.5-1.5-6a242.43 242.43 0 0 0-.5 22h-9v-33a112.97 112.97 0 0 1 15 .5 625.089 625.089 0 0 0 5 16.5 79.922 79.922 0 0 0 5-17h15v33h-11a145.053 145.053 0 0 0-.5-17 85.016 85.016 0 0 0-4.5 17 21.127 21.127 0 0 1-9-1 247.061 247.061 0 0 0-4-15Z" style="opacity:1"/><path fill="#070707" d="M289.5 237.5h11c-.166 7.674 0 15.341.5 23 4.155 4.204 7.822 3.871 11-1 .5-7.326.666-14.659.5-22h10a133.23 133.23 0 0 1-1.5 27c-3.691 4.905-8.691 6.905-15 6-8.119.948-13.452-2.385-16-10-.5-7.659-.666-15.326-.5-23Z" style="opacity:1"/><path fill="#c4c4c4" d="M172.5 245.5h11v25c-.992-7.816-1.326-15.816-1-24-3.542.313-6.875-.021-10-1Z" style="opacity:1"/><path fill="#939393" d="M204.5 245.5c-3.125.979-6.458 1.313-10 1 .326 8.184-.008 16.184-1 24v-25h11Z" style="opacity:1"/><path fill="#ddd" d="M113.5 246.5a123.262 123.262 0 0 1 4 11 13.116 13.116 0 0 1-7 1 60.896 60.896 0 0 1 3-12Z" style="opacity:1"/><path fill="#e1e1e1" d="M221.5 246.5c1.3 3.557 2.633 7.224 4 11a13.116 13.116 0 0 1-7 1 60.896 60.896 0 0 1 3-12Z" style="opacity:1"/><path fill="#d55897" d="M358.5 209.5c13.703-.28 27.37.054 41 1 .51 4.669-.823 5.669-4 3-.111-.617-.444-1.117-1-1.5a40.914 40.914 0 0 0-9-.5c3.486 8.476 8.819 15.476 16 21 .111.617.444 1.117 1 1.5 10.182.717 20.349.551 30.5-.5 1.986-.069 3.486-.735 4.5-2 4.195-1.497 6.195.169 6 5-1.984-.117-3.65.55-5 2 4.688 2.713 6.188 6.713 4.5 12-.5 1.833-1.667 3-3.5 3.5 6.648 5.571 6.648 11.238 0 17-8.994.5-17.994.666-27 .5v-31c-2.292-.256-4.459.077-6.5 1l-1 22c-3.435 6.552-8.935 9.219-16.5 8-8.193 1.3-13.36-2.033-15.5-10-.5-6.658-.666-13.325-.5-20-2.107-.968-4.441-1.302-7-1v31h-10v-13c-4.202-.317-8.202.017-12 1v12h-11v-30h-4v-6h4v3c1.478.262 2.811-.071 4-1a55.582 55.582 0 0 0 1.5-9c.383-.556.883-.889 1.5-1a12.93 12.93 0 0 0 .5 5 14.698 14.698 0 0 1 3.5-3c.011-1.517.677-2.684 2-3.5 7.638-.007 11.638 3.826 12 11.5 1.56.019 3.06.352 4.5 1a12.21 12.21 0 0 1 4-3l2 4c2.398-1.499 5.065-2.166 8-2 3.928.219 7.761.886 11.5 2 3.216-.375 5.883-1.708 8-4a2740.153 2740.153 0 0 1-17-2 57.15 57.15 0 0 0 15-1c-.355-1.022-1.022-1.689-2-2-3.621-1.631-6.621-3.965-9-7a5.727 5.727 0 0 0-1-3c1.929.269 3.595-.231 5-1.5-2.996-4.274-6.996-5.44-12-3.5.285 1.788-.048 3.455-1 5-2.283 1.471-4.283 3.138-6 5a27.374 27.374 0 0 1 4-8c1.604-.787 2.271-2.12 2-4h-11c6.832-.861 13.832-.861 21 0v-3c-8.517.326-16.85-.007-25-1Z" style="opacity:1"/><path fill="#faf3f8" d="M423.5 245.5a32.462 32.462 0 0 1 8 .5c1.333 1.667 1.333 3.333 0 5a32.462 32.462 0 0 1-8 .5v-6Z" style="opacity:1"/><path fill="#f8c2df" d="M383.5 241.5c3.798-.983 7.798-1.317 12-1 .324 6.854-.009 13.521-1 20v-19h-11Z" style="opacity:1"/><path fill="#fcfcfd" d="M383.5 241.5h11v19c-.453.958-1.119 1.792-2 2.5-2.599.769-5.099.602-7.5-.5a79.712 79.712 0 0 1-1.5-21Z" style="opacity:1"/><path fill="#fbf5fa" d="M343.5 229.5a514.367 514.367 0 0 0 4-3 64.501 64.501 0 0 0 6.5 4 72.732 72.732 0 0 1 1.5 20h-12v-9c5.658.821 7.325-1.346 5-6.5a18.453 18.453 0 0 0-6-.5 20.69 20.69 0 0 1 1-5Z" style="opacity:1"/><path fill="#fad1ee" d="M437.5 231.5c-1.014 1.265-2.514 1.931-4.5 2a175.738 175.738 0 0 1-30.5.5c-.556-.383-.889-.883-1-1.5 12.036.744 24.036.411 36-1Z" style="opacity:1"/><path fill="#eba3cb" d="M381.5 220.5c.61.891.943 1.891 1 3-.617-.111-1.117-.444-1.5-1a24.362 24.362 0 0 0-1.5 10c4.471.589 8.471-.077 12-2 .978.311 1.645.978 2 2a57.15 57.15 0 0 1-15 1c-1.129-2.128-1.296-4.461-.5-7 .353-2.652 1.52-4.652 3.5-6Z" style="opacity:1"/><path fill="#fcf2f8" d="M382.5 223.5c2.379 3.035 5.379 5.369 9 7-3.529 1.923-7.529 2.589-12 2a24.362 24.362 0 0 1 1.5-10c.383.556.883.889 1.5 1Z" style="opacity:1"/><path fill="#fed5ee" d="M372.5 241.5h-6c.327 10.181-.006 20.181-1 30v-31c2.559-.302 4.893.032 7 1Z" style="opacity:1"/><path fill="#f8fafd" d="M423.5 258.5h10v5h-10v-5Z" style="opacity:1"/><path fill="#595959" d="m63.5 254.5-2 16c-.166-7.341 0-14.674.5-22l1.5 6Z" style="opacity:1"/><path fill="#eaa6c7" d="M343.5 259.5c3.798-.983 7.798-1.317 12-1v13c-.983-3.798-1.317-7.798-1-12h-11Z" style="opacity:1"/><path fill="#3b3b3b" d="m82.5 270.5-2-17a42.584 42.584 0 0 1 1.5-5c.5 7.326.666 14.659.5 22Z" style="opacity:1"/><path fill="#585858" d="m254.5 254.5-2 16c-.166-7.341 0-14.674.5-22l1.5 6Z" style="opacity:1"/></svg>